<svg xmlns="http://www.w3.org/2000/svg" width="60" height="60" viewBox="0 0 60 60">
    <g fill="none" fill-rule="evenodd">
        <g fill-rule="nonzero">
            <g>
                <path fill="#EBE7F2" d="M47.574 51.015H29.292c-.375 0-.678-.304-.678-.679 0-.375.303-.678.678-.678h18.282c.375 0 .679.303.679.678 0 .375-.304.679-.679.679z" transform="translate(-270 -472) translate(270 472)"/>
                <g fill="#F9B087">
                    <path d="M10.163 23.882H6.871c-.7 0-1.329-.442-1.566-1.1l-.947-2.635c-1.144-3.181-1.02-6.636.349-9.727l1-2.26c.24-.541.315-1.137.216-1.721l-.396-3.007C5.373 2.26 5.922 1.1 6.927.476c.98-.608 2.199-.608 3.18 0 1.005.624 1.554 1.784 1.4 2.956l-.393 2.982c-.102.61-.028 1.205.212 1.747l1.001 2.26c1.37 3.09 1.493 6.545.349 9.726l-.948 2.634c-.236.659-.866 1.1-1.565 1.1zM8.517 1.378c-.302 0-.605.084-.875.251-.552.343-.855.981-.77 1.626l.393 2.982c.14.823.031 1.687-.317 2.473l-1 2.26c-1.228 2.77-1.339 5.867-.313 8.718l.947 2.634c.044.122.16.203.288.203h3.293c.129 0 .245-.081.288-.203l.948-2.634c1.025-2.851.914-5.947-.313-8.718l-1-2.26c-.349-.786-.457-1.65-.313-2.498l.388-2.957c.085-.645-.217-1.283-.77-1.626-.27-.167-.572-.251-.874-.251z" transform="translate(-270 -472) translate(270 472) translate(6 27.643)"/>
                    <path d="M16.432 9.027c-.126 0-.253-.035-.367-.109-1.723-1.112-3.625-1.814-5.656-2.088-.371-.05-.631-.392-.582-.763.05-.371.393-.63.764-.582 2.229.3 4.318 1.072 6.21 2.294.315.203.405.623.202.938-.13.2-.348.31-.57.31zM.688 9.027c-.223 0-.44-.11-.57-.31-.204-.315-.114-.735.201-.939 1.865-1.204 3.925-1.972 6.122-2.28.374-.053.714.206.767.577.052.37-.207.714-.578.766-2 .281-3.876.98-5.575 2.077-.113.074-.24.109-.367.109zM5.467 21.904c-.048 0-.096-.006-.145-.016-1.783-.389-3.466-1.089-5.003-2.08-.314-.204-.405-.624-.202-.939.204-.315.624-.405.938-.202 1.4.904 2.932 1.541 4.556 1.895.366.08.598.441.518.807-.069.318-.35.535-.662.535zM11.56 21.924c-.314 0-.596-.22-.664-.539-.077-.366.157-.726.524-.804 1.657-.35 3.22-.993 4.645-1.914.315-.203.735-.112.938.202.203.315.113.735-.202.938-1.565 1.01-3.28 1.718-5.1 2.102-.048.01-.095.015-.142.015z" transform="translate(-270 -472) translate(270 472) translate(6 27.643)"/>
                </g>
                <path fill="#EBE7F2" d="M47.574 30.755H29.292c-.375 0-.678-.304-.678-.679 0-.375.303-.678.678-.678h18.282c.375 0 .679.303.679.678 0 .375-.304.679-.679.679z" transform="translate(-270 -472) translate(270 472)"/>
                <g fill="#1A4F82">
                    <path d="M12.99 15.772l-.968-12.009c-.016-.215.044-.43.167-.608.268-.388.41-.843.41-1.315V.717c0-.374-.303-.678-.678-.678-.374 0-.678.304-.678.678V1.84c0 .195-.059.382-.17.543-.297.43-.441.953-.404 1.482l.118 1.47H6.335l.117-1.478c.036-.52-.107-1.045-.405-1.475-.11-.16-.17-.347-.17-.542V.718c0-.375-.303-.679-.678-.679-.375 0-.678.304-.678.679V1.84c0 .473.142.927.41 1.315.123.177.183.393.168.602L4.04 17.093c-.075 1.07-.534 2.078-1.293 2.836C.981 21.694.01 24.041.01 26.538v20.024c0 1.474 1.198 2.672 2.671 2.672h11.76c1.473 0 2.671-1.198 2.671-2.672V26.538c0-2.202-.774-4.347-2.181-6.04-1.15-1.384-1.82-3.016-1.94-4.726zm-2.094-9.08l.337 4.174H5.895l.332-4.175h4.67zm4.858 39.87c0 .725-.59 1.315-1.314 1.315H2.68c-.725 0-1.314-.59-1.314-1.315V26.538c0-2.134.83-4.14 2.34-5.65.99-.99 1.588-2.304 1.685-3.694l.396-4.971h5.555l.295 3.65c.139 1.989.916 3.888 2.25 5.492 1.204 1.45 1.867 3.287 1.867 5.173v20.024zM47.162 23.481h-4.91v-2.08c0-1.122-.912-2.035-2.034-2.035H24.649c-1.122 0-2.035.913-2.035 2.035v24.377c0 1.815 1.476 3.292 3.292 3.292H38.96c1.815 0 3.292-1.477 3.292-3.292v-1.512h.14c4.45 0 8.07-3.62 8.07-8.071v-9.413c0-1.82-1.48-3.301-3.301-3.301zm-4.91 4.07h4.141v8.644c0 2.206-1.794 4-4 4h-.14V27.552zm-1.356 18.227c0 1.067-.868 1.935-1.935 1.935H25.906c-1.067 0-1.935-.868-1.935-1.935V21.401c0-.374.304-.678.678-.678h15.569c.374 0 .678.304.678.678v24.377zm8.21-9.583c0 3.702-3.011 6.714-6.714 6.714h-.14v-1.357h.14c2.955 0 5.358-2.403 5.358-5.357v-9.322c0-.375-.304-.678-.679-.678h-4.818v-1.357h4.909c1.072 0 1.945.872 1.945 1.945v9.412z" transform="translate(-270 -472) translate(270 472) translate(6 6.749)"/>
                </g>
                <path fill="#F9B087" d="M33.16 48.584c-.375 0-.679-.303-.679-.678V33.281c0-.375.304-.678.679-.678.374 0 .678.303.678.678v14.625c0 .375-.304.678-.678.678zM36.309 48.584c-.375 0-.679-.303-.679-.678V33.281c0-.375.304-.678.679-.678.374 0 .678.303.678.678v14.625c0 .375-.304.678-.678.678zM40.558 48.584c-.375 0-.678-.303-.678-.678V33.281c0-.375.303-.678.678-.678.375 0 .678.303.678.678v14.625c0 .375-.303.678-.678.678zM43.707 48.584c-.375 0-.678-.303-.678-.678V33.281c0-.375.303-.678.678-.678.375 0 .679.303.679.678v14.625c0 .375-.304.678-.679.678zM17.948 6.116h-6.776c-.375 0-.678-.303-.678-.678V2.695c0-.374.303-.678.678-.678h6.776c.375 0 .679.304.679.678v2.743c0 .375-.304.678-.679.678zM11.85 4.76h5.42V3.374h-5.42V4.76z" transform="translate(-270 -472) translate(270 472)"/>
            </g>
        </g>
    </g>
</svg>
