<svg xmlns="http://www.w3.org/2000/svg" width="60" height="60" viewBox="0 0 60 60">
    <g fill="none" fill-rule="evenodd">
        <g fill-rule="nonzero">
            <g>
                <path fill="#EBE7F2" d="M20.204 48.144c-.627 0-1.26-.12-1.87-.367L3.46 41.733c-.311-.127-.461-.481-.335-.792.127-.312.482-.462.793-.335l14.874 6.044c1.425.579 3.033.234 4.095-.879l16.194-16.965c.232-.243.617-.252.86-.02s.252.617.02.86L23.767 46.61c-.956 1-2.243 1.533-3.563 1.533z" transform="translate(-30 -336) translate(30 336)"/>
                <path fill="#1A4F82" d="M56.29 17.194c-.289-.288-.633-.485-.999-.591l.096-.096c.912-.912.912-2.396 0-3.309-.288-.287-.632-.484-.998-.59l.096-.096c.912-.912.912-2.397 0-3.309-.912-.912-2.397-.912-3.309 0l-.095.096c-.107-.366-.304-.71-.591-.998-.912-.912-2.397-.912-3.309 0l-6.707 6.708.17-3.112c.042-.786-.223-1.542-.749-2.128-.475-.53-1.132-.874-1.838-.958-.63-.076-1.245.113-1.65.62-.219.275-.349.616-.368.967l-.275 5.055-1.613 4.02c-.846 2.106-1.498 4.301-1.942 6.528L20.734 35.58c-.814.68-1.966.76-2.866.198l-13.913-8.68c-.284-.178-.66-.09-.837.194-.178.285-.091.66.194.838l13.913 8.68c1.346.84 3.07.72 4.288-.296l11.641-9.718c.108-.09.181-.214.208-.351.429-2.224 1.074-4.418 1.918-6.52l1.65-4.112c.025-.061.04-.127.043-.193l.281-5.155c.015-.267.245-.472.511-.458.47.026.91.222 1.225.574.309.344.465.788.44 1.25l-.214 3.911c-.017.319.215.597.532.637l.66.083c.188.024.374-.04.507-.174l7.127-7.126c.437-.438 1.15-.438 1.588 0 .435.434.438 1.14.01 1.578l-7.136 7.137c-.238.237-.238.622 0 .86.237.238.622.238.86 0l8.673-8.673c.438-.438 1.15-.438 1.589 0 .438.438.438 1.15 0 1.588l-8.674 8.674c-.237.237-.237.622 0 .86.238.237.623.237.86 0l7.131-7.131c.439-.434 1.148-.433 1.585.004.438.438.438 1.15 0 1.588L47.4 22.774c-.238.238-.238.623 0 .86.237.238.623.238.86 0l5.584-5.584c.438-.434 1.148-.433 1.585.004.438.438.438 1.15 0 1.589L45.242 29.83c-1.52 1.52-3.438 2.539-5.549 2.946-.133.025-.254.095-.343.197L25.83 48.46c-2.231 2.556-5.838 3.404-8.975 2.11L3.921 45.23c-.31-.128-.666.019-.795.33-.128.31.02.665.33.793l12.935 5.34c1.13.467 2.312.692 3.482.692 2.58 0 5.102-1.096 6.874-3.125L40.13 33.928c2.268-.479 4.328-1.595 5.97-3.237L56.29 20.503c.913-.913.913-2.397 0-3.31z" transform="translate(-30 -336) translate(30 336)"/>
                <g fill="#ED9ABC">
                    <path d="M40.182 53.997H.683c-.336 0-.608-.272-.608-.608v-4.613c0-.336.272-.608.608-.608.336 0 .608.272.608.608v4.005h38.283V26.765c0-.336.272-.609.608-.609.336 0 .608.273.608.609v26.624c0 .336-.272.608-.608.608zM.683 25.83c-.336 0-.608-.273-.608-.609V.611c0-.336.272-.608.608-.608h39.499c.336 0 .608.272.608.608v1.903c0 .336-.272.608-.608.608-.336 0-.608-.272-.608-.608V1.22H1.29v24.003c0 .335-.272.608-.608.608z" transform="translate(-30 -336) translate(30 336) translate(9.568 3)"/>
                </g>
            </g>
        </g>
    </g>
</svg>
