<svg xmlns="http://www.w3.org/2000/svg" width="60" height="60" viewBox="0 0 60 60">
    <g fill="none" fill-rule="evenodd">
        <g fill-rule="nonzero">
            <g>
                <path fill="#EBE7F2" d="M54.624 49.022l-.086.042c-4.77 2.314-10.228 2.767-15.33 1.323l-.115-.033c-6.172-1.74-12.66-2.052-18.97-.905L14.2 50.526c-.338.061-.68.102-1.024.121-4.296.242-7.89-2.78-8.656-6.734l-.063.43c-.76 5.218 3.454 9.823 8.72 9.527.342-.02.685-.06 1.023-.122l5.922-1.076c6.31-1.148 12.798-.836 18.97.905l.116.032c5.101 1.444 10.559.992 15.329-1.322l.086-.042c1.013-.494 1.654-1.521 1.654-2.649 0-.589-.175-1.145-.481-1.613-.286.437-.685.801-1.173 1.04z" transform="translate(-30 -472) translate(30 472)"/>
                <path fill="#EBE7F2" d="M8.567 44.342l.586-4.024c.946-6.488.693-13.095-.745-19.492l-.505-2.247c-.414-1.843.987-3.594 2.876-3.594H6.671c-1.889 0-3.29 1.751-2.876 3.594l.505 2.247c1.438 6.397 1.69 13.004.745 19.492l-.586 4.024c-.761 5.218 3.453 9.823 8.718 9.527.344-.019.686-.06 1.024-.12l.605-.11c-4.03-.998-6.876-4.932-6.24-9.297z" transform="translate(-30 -472) translate(30 472)"/>
                <path fill="#1A4F82" d="M54.296 46.056l-3.058-.834c-1.142-.312-2.288-.662-3.406-1.042-1.64-.557-3.274-1.195-4.856-1.895-.365-.162-.791.003-.953.368-.161.364.004.79.368.952 1.622.718 3.296 1.371 4.977 1.943 1.145.389 2.32.748 3.49 1.067l3.058.834c.966.263 1.64 1.147 1.64 2.148 0 .858-.478 1.624-1.243 1.997l-.09.044c-4.594 2.227-9.856 2.681-14.816 1.278l-.118-.034c-6.246-1.762-12.918-2.08-19.295-.92l-5.922 1.076c-.308.056-.623.094-.935.111-2.293.128-4.496-.768-6.046-2.462-1.55-1.694-2.249-3.968-1.918-6.24l.586-4.024c.962-6.6.709-13.247-.755-19.755L4.5 18.422c-.149-.664.01-1.349.434-1.88.425-.53 1.058-.835 1.738-.835h11.986c.598 0 1.16.235 1.581.66.421.425.65.99.644 1.588l-.037 3.929c-.037 3.759 1.492 7.415 4.194 10.03.416.402.843.803 1.268 1.191.295.27.752.248 1.02-.046.27-.295.248-.751-.046-1.02-.415-.379-.831-.77-1.238-1.163-2.418-2.34-3.787-5.613-3.755-8.978l.038-3.93c.01-.986-.367-1.916-1.062-2.617-.695-.701-1.62-1.088-2.607-1.088H6.67c-1.12 0-2.165.502-2.865 1.378-.7.875-.961 2.004-.715 3.098l.505 2.246c1.424 6.335 1.671 12.805.735 19.23l-.587 4.024c-.393 2.702.438 5.408 2.282 7.423 1.844 2.015 4.465 3.08 7.192 2.93.37-.021.745-.066 1.112-.132l5.922-1.077c6.162-1.12 12.61-.813 18.643.888l.117.034c2.021.572 4.089.855 6.146.855 3.34 0 6.654-.748 9.693-2.222l.09-.043c1.27-.62 2.059-1.883 2.059-3.298 0-1.651-1.112-3.107-2.704-3.541z" transform="translate(-30 -472) translate(30 472)"/>
                <path fill="#EBE7F2" d="M47.657 16.811c.188-.553.213-1.15.233-1.736 0-.12.005-.24.012-.36v-.002c-.78 1.575-2.432 3.558-4.814 4.293-.015.016-.028.032-.04.05-.127.176-1.825 2.598-2.584 3.68-.138.198.037.461.272.41 1.51-.33 5.317-1.612 6.921-6.335zM50.74 28.884l-.068.029c-.281.132-.436.382-.71.64-.664.63-1.49 1.077-2.375 1.304-1.774.455-3.717-.001-5.065-1.252-.501-.465-.91-1.024-1.203-1.64-.114-.24-.47-.168-.5.096-.207 1.773.489 3.571 1.83 4.746.198.173.04.502-.217.455-1.69-.309-3.256-1.185-4.4-2.482-1.44-1.632-2.126-3.839-1.868-6 .132-1.104.506-2.159 1.081-3.102.137-.224-.102-.491-.338-.375-2.506 1.23-4.227 3.763-4.345 6.599-.027.636-.04 1.33.127 1.947.057.212.086.418.098.625 1.94 2.293 4.789 3.776 7.87 3.927 4.106.202 8.032-1.966 10.083-5.517zM38.547 7.197c-.23-.476-.505-.935-.824-1.373-.28-.384-.585-.751-.91-1.1-.26-.28-.533-.548-.817-.803l-.1-.088-.03-.015c1.05 1.737 1.578 3.974 1.355 5.99-.12 1.091-.484 2.148-1.067 3.077-.314.5-.683.989-1.127 1.381-.257.228-.527.442-.79.658-2.247 1.843-3.631 4.51-3.947 7.321l.078-.12c.058-.087.12-.175.187-.265.338-.453.751-.908 1.016-1.194.633-.686 1.33-1.285 2.063-1.86.652-.51 1.402-.886 2.06-1.399 1.362-1.061 2.51-2.432 3.142-4.052.805-2.066.635-4.242-.289-6.158z" transform="translate(-30 -472) translate(30 472)"/>
                <path fill="#F9B087" d="M41.179 35.136c-.186 0-.372-.004-.558-.013-4.88-.24-9.138-3.532-10.597-8.191-1.414-4.514.095-9.564 3.755-12.567l.189-.154c.195-.158.392-.318.58-.485.343-.303.667-.703.994-1.224.52-.83.853-1.788.961-2.773.202-1.83-.267-3.901-1.255-5.538-.165-.273-.13-.623.085-.86.215-.235.56-.302.848-.162 1.14.551 2.35 1.15 3.506 1.87 2.473 1.54 4.123 3.21 5.043 5.103 1.054 2.17 1.105 4.787.188 7.099 1.073-.826 1.87-1.905 2.336-2.847.096-.194.274-.335.484-.383.21-.05.433-.001.604.13.169.13.343.274.517.426.404.349.788.73 1.142 1.132 3.233 3.676 3.816 9.208 1.418 13.452-2.08 3.68-6.054 5.985-10.24 5.985zM37.39 5.39c.507 1.46.708 3.043.548 4.498-.133 1.199-.538 2.368-1.173 3.38-.402.64-.814 1.144-1.26 1.539-.204.18-.416.353-.627.525l-.184.15c-3.21 2.633-4.533 7.06-3.293 11.018 1.259 4.02 5.08 6.974 9.29 7.18 3.847.188 7.564-1.867 9.47-5.239 2.101-3.718 1.589-8.566-1.246-11.789-.255-.29-.527-.566-.813-.825-.748 1.194-2.284 3.095-4.81 3.872-.292.09-.61-.014-.792-.261-.182-.247-.189-.582-.017-.835.07-.104.15-.211.231-.32.13-.176.266-.358.334-.495l.023-.044c1.261-2.161 1.399-4.833.36-6.971-.798-1.642-2.272-3.116-4.508-4.508-.5-.31-1.016-.6-1.533-.875z" transform="translate(-30 -472) translate(30 472)"/>
                <path fill="#1A4F82" d="M13.019 36.818c-.366-.158-.791.009-.95.374-1.498 3.446-.075 7.53 3.24 9.298l.09.048c.107.057.224.085.339.085.258 0 .507-.139.637-.382.188-.352.055-.789-.297-.977l-.09-.048c-2.655-1.416-3.795-4.687-2.595-7.448.159-.365-.009-.79-.374-.95z" transform="translate(-30 -472) translate(30 472)"/>
                <g fill="#F9B087">
                    <path d="M7.286 14.064c-.102 0-.206-.013-.31-.041-.52-.14-.865-.597-.856-1.137l.041-2.506-2.15 1.289c-.463.278-1.03.208-1.412-.174-.382-.382-.452-.95-.174-1.413l1.289-2.15-2.507.042c-.548 0-.996-.336-1.137-.858-.14-.522.084-1.048.556-1.31l2.191-1.217L.627 3.37C.153 3.11-.07 2.582.07 2.061c.14-.522.61-.866 1.137-.858l2.506.042-.066-.11c-.18-.301-.118-.688.147-.918.266-.23.658-.235.93-.012 3.08 2.52 6.448 4.737 10.009 6.59.17.088.298.24.356.424.04.127.043.261.012.389l1.484 2.474c.277.463.207 1.03-.175 1.413-.382.381-.95.451-1.413.174l-2.15-1.29.042 2.507c.009.54-.336.997-.857 1.136-.521.142-1.048-.083-1.31-.555l-1.218-2.191-1.217 2.19c-.21.38-.59.598-1 .598zm-.83-5.353c.2 0 .4.052.578.155.364.21.586.601.58 1.021l-.032 1.876.911-1.64c.204-.367.591-.595 1.011-.595.42 0 .807.228 1.011.595l.912 1.64-.031-1.876c-.007-.42.215-.811.578-1.02.364-.21.813-.207 1.173.01l1.61.964-.966-1.609c-.071-.119-.119-.246-.144-.376-3.015-1.599-5.892-3.453-8.574-5.528-.221.237-.532.366-.867.37L2.33 2.666l1.64.91c.367.204.595.592.595 1.012 0 .42-.229.807-.596 1.01l-1.64.912 1.877-.031c.424-.01.81.215 1.02.578.21.364.207.813-.01 1.174L4.253 9.84l1.609-.965c.184-.11.39-.165.596-.165z" transform="translate(-30 -472) translate(30 472) translate(24.947 33.898)"/>
                </g>
            </g>
        </g>
    </g>
</svg>
