<svg xmlns="http://www.w3.org/2000/svg" width="16" height="16" viewBox="0 0 16 16">
    <g fill="none" fill-rule="evenodd">
        <g fill="#273C51" fill-rule="nonzero" stroke="#273C51" stroke-width=".5">
            <g>
                <path d="M8.796 8l6.24-6.24c.219-.22.219-.576 0-.795-.22-.22-.577-.22-.796 0L8 7.205 1.76.965c-.22-.22-.576-.22-.795 0-.22.22-.22.576 0 .795L7.205 8l-6.24 6.24c-.22.22-.22.576 0 .795.11.11.254.165.398.165.143 0 .287-.055.397-.165L8 8.795l6.24 6.24c.11.11.254.165.397.165.144 0 .288-.055.398-.165.22-.22.22-.576 0-.795L8.795 8z" transform="translate(-328 -315) translate(328 315)"/>
            </g>
        </g>
    </g>
</svg>
