<svg xmlns="http://www.w3.org/2000/svg" width="28" height="28" viewBox="0 0 28 28">
    <g fill="none" fill-rule="evenodd">
        <g fill="#999" fill-rule="nonzero" stroke="#FFF" stroke-width=".583">
            <g>
                <path d="M14 10.325c-2.026 0-3.675 1.649-3.675 3.675s1.649 3.675 3.675 3.675 3.675-1.649 3.675-3.675c0-2.027-1.649-3.675-3.675-3.675z" transform="translate(-306 -98) translate(306 98)"/>
                <path d="M25.55 12.95h-2.162c-.486-4.373-3.965-7.852-8.338-8.338V2.45c0-.58-.47-1.05-1.05-1.05-.58 0-1.05.47-1.05 1.05v2.162c-4.373.486-7.852 3.965-8.338 8.338H2.45c-.58 0-1.05.47-1.05 1.05 0 .58.47 1.05 1.05 1.05h2.162c.486 4.373 3.965 7.852 8.338 8.338v2.162c0 .58.47 1.05 1.05 1.05.58 0 1.05-.47 1.05-1.05v-2.162c4.373-.486 7.852-3.965 8.338-8.338h2.162c.58 0 1.05-.47 1.05-1.05 0-.58-.47-1.05-1.05-1.05zM14 21.35c-4.053 0-7.35-3.297-7.35-7.35 0-4.053 3.297-7.35 7.35-7.35 4.053 0 7.35 3.297 7.35 7.35 0 4.053-3.297 7.35-7.35 7.35z" transform="translate(-306 -98) translate(306 98)"/>
            </g>
        </g>
    </g>
</svg>
