<svg xmlns="http://www.w3.org/2000/svg" width="60" height="60" viewBox="0 0 60 60">
    <g fill="none" fill-rule="evenodd">
        <g fill-rule="nonzero">
            <g>
                <path fill="#EBE7F2" d="M19.139 36.7c-.387 0-.768-.106-1.108-.313-.488-.296-.831-.766-.966-1.32-.136-.555-.047-1.13.25-1.618.297-.488.766-.831 1.321-.967.43-.104.694-.54.59-.969-.105-.43-.54-.693-.97-.59-.36.09-.72-.132-.807-.49-.087-.359.133-.72.491-.808 1.146-.28 2.305.426 2.584 1.572.28 1.146-.426 2.305-1.572 2.584-.208.05-.384.18-.495.362-.111.183-.145.398-.094.607.105.43.54.693.969.59.36-.09.72.132.808.49.087.36-.133.72-.491.808-.17.04-.34.061-.51.061z" transform="translate(-30 -204) translate(30 204)"/>
                <g fill="#1A4F82">
                    <path d="M31.299 28.123c1.18 0 2.135-.956 2.135-2.135 0-1.18-.956-2.136-2.135-2.136-1.18 0-2.136.956-2.136 2.136 0 1.18.956 2.135 2.136 2.135zM.726 21.97c.369 0 .668-.3.668-.67 0-9.265 6.414-17.44 15.599-19.877.356-.095.569-.46.474-.818-.095-.357-.462-.57-.818-.474C6.88 2.724.057 11.43.057 21.301c0 .369.3.668.669.668zM32.24 2.952C39.362 6.499 43.785 13.529 43.785 21.3c0 .369.3.668.669.668.369 0 .668-.299.668-.668 0-8.282-4.707-15.771-12.284-19.545-.33-.165-.732-.03-.896.3-.165.33-.03.731.3.896zM12.222 21.399c.37 0 .668-.3.668-.669 0-.369-.299-.668-.668-.668-3.268 0-5.926 2.658-5.926 5.926 0 3.267 2.658 5.926 5.926 5.926 1.354 0 2.678-.469 3.728-1.32.286-.232.33-.653.098-.94-.232-.287-.653-.33-.94-.098-.824.668-1.822 1.02-2.886 1.02-2.53 0-4.59-2.058-4.59-4.588.001-2.53 2.06-4.59 4.59-4.59z" transform="translate(-30 -204) translate(30 204) translate(7 7.144)"/>
                    <path d="M44.452 26.55c-.369 0-.668.3-.668.668 0 3.488-.852 6.779-2.351 9.684-.035-.006-.071-.011-.108-.011-.338 0-.473-.122-.742-.363-.331-.298-.785-.706-1.635-.706-.851 0-1.305.407-1.636.706-.27.241-.404.363-.742.363-.337 0-.472-.122-.74-.363-.332-.298-.785-.706-1.635-.706-.851 0-1.305.407-1.636.706-.269.241-.403.363-.741.363-.337 0-.472-.122-.74-.363-.331-.298-.785-.706-1.635-.706-.37 0-.669.299-.669.668 0 .369.3.668.669.668.337 0 .472.122.74.363.331.298.785.706 1.635.706s1.304-.407 1.635-.706c.27-.241.404-.363.742-.363.337 0 .472.122.74.363.331.298.785.706 1.635.706s1.305-.407 1.636-.706c.269-.241.404-.363.742-.363.338 0 .473.122.741.363.245.22.559.5 1.05.632-3.716 6.144-10.461 10.26-18.15 10.26-11.687 0-21.195-9.508-21.195-21.195 0-.369-.299-.668-.668-.668-.37 0-.669.299-.669.668 0 12.424 10.108 22.532 22.532 22.532s22.532-10.108 22.532-22.532c0-.369-.3-.668-.669-.668z" transform="translate(-30 -204) translate(30 204) translate(7 7.144)"/>
                </g>
                <path fill="#ED9ABC" d="M23.207 26.256c-.349 0-.696-.129-.976-.384-.525-.478-.63-1.234-.256-1.838l3.877-6.26h-2.158c-.661 0-1.248-.345-1.569-.922-.322-.577-.306-1.257.042-1.82l6.852-11.06c.33-.533.9-.851 1.527-.851h6.688c.661 0 1.248.344 1.57.922.32.577.305 1.257-.043 1.82l-4.592 7.413c-.128.207-.05.395-.011.466.04.07.158.236.402.236.784 0 1.453.48 1.702 1.224.25.744.007 1.53-.618 2.004l-11.558 8.75c-.265.2-.573.3-.879.3zm7.338-21.799c-.16 0-.306.082-.39.218l-6.852 11.061c-.128.207-.05.395-.01.466.04.07.157.236.4.236h2.431c.43 0 .826.233 1.035.608.21.375.199.836-.027 1.2l-4.021 6.492c-.019.03-.05.081.02.146.072.065.12.028.148.006l11.557-8.75c.238-.18.19-.418.159-.512-.032-.095-.138-.314-.436-.314-.66 0-1.248-.344-1.57-.922-.32-.577-.305-1.258.043-1.82l4.593-7.413c.128-.208.05-.395.01-.466-.04-.07-.158-.236-.401-.236h-6.689z" transform="translate(-30 -204) translate(30 204)"/>
                <g fill="#EBE7F2">
                    <path d="M24.084 12.456c-.256 0-.51-.094-.716-.28-.385-.352-.463-.907-.189-1.35l1.654-2.67h-.502c-.45 0-.865-.244-1.084-.637-.218-.393-.207-.874.03-1.256L26.75.655c.227-.367.621-.587 1.054-.587h3.39c.45 0 .865.244 1.084.637.218.393.207.874-.029 1.256l-2.243 3.622c.468.06.854.375 1.008.834.173.514.005 1.057-.427 1.384l-5.859 4.436c-.194.146-.42.22-.644.22zm.42-5.637h1.059c.337 0 .649.183.813.478.164.295.155.656-.022.942l-1.272 2.053 4.504-3.41c-.348-.072-.653-.292-.83-.61-.219-.393-.208-.874.029-1.256l2.236-3.61h-3.163l-3.353 5.413zM1.121 12.456c-.256 0-.51-.094-.716-.28-.385-.352-.463-.907-.189-1.35l1.654-2.67h-.502c-.45 0-.865-.244-1.084-.637-.218-.393-.207-.874.03-1.256L3.787.655c.227-.367.621-.587 1.054-.587h3.39c.45 0 .865.244 1.084.637.218.393.207.874-.029 1.256L7.043 5.583c.468.06.854.375 1.008.834.173.514.005 1.057-.427 1.384l-5.86 4.436c-.192.146-.418.22-.643.22zm.42-5.637h1.06c.337 0 .648.183.812.478.164.295.156.656-.022.942L2.12 10.292l4.503-3.41c-.348-.072-.653-.292-.83-.61-.218-.393-.207-.874.03-1.256l2.236-3.61H4.896L1.542 6.818z" transform="translate(-30 -204) translate(30 204) translate(11.812 14.896)"/>
                </g>
            </g>
        </g>
    </g>
</svg>
