<svg xmlns="http://www.w3.org/2000/svg" width="32" height="32" viewBox="0 0 32 32">
    <g fill="none" fill-rule="evenodd">
        <g>
            <g transform="translate(-211 -224) translate(211 224)">
                <circle cx="16" cy="16" r="15" fill="#FFC10D" stroke="#194F82"/>
                <g fill-rule="nonzero">
                    <path fill="#FFF" d="M5.174 5.568l-.847-.542-.85 1.324 3.998 2.56 2.696-4.208c.696-1.155.37-2.581-.718-3.28-1.174-.777-2.683-.253-3.278.717l-.218.342 1.956 1.25c.243.155.314.475.157.719-.154.243-.475.314-.718.157L5.396 3.356l-.505.795.847.542c.243.154.314.474.157.718-.16.24-.48.308-.721.157z" transform="matrix(1 0 0 -1 8 26)"/>
                    <g fill="#FFC10D">
                        <path d="M10.077 5.165c0-1.226-.434-2.35-1.152-3.231L1.73 9.127c.887.721 2.018 1.152 3.228 1.152 2.825 0 5.12-2.295 5.12-5.114zM8.192 1.197C7.32.486 6.06.048 4.85.036L1.482 5.295c-.345.554-.86.986-1.445 1.26.191.69.524 1.312.959 1.842l7.196-7.2z" transform="matrix(1 0 0 -1 8 26) translate(4.813 7.386)"/>
                    </g>
                    <path fill="#56ACE0" d="M2.143 12.838c1.22.721 2.587.324 3.28-.718l1.492-2.332-4-2.56-1.49 2.332c-.709 1.097-.385 2.57.718 3.278z" transform="matrix(1 0 0 -1 8 26)"/>
                    <path fill="#FFC10D" d="M8.892 2.3c-.326-.272-1.321-.441-1.845.403L4.912 6.039l2.25 1.439 2.134-3.333c.397-.623.163-1.378-.404-1.846z" transform="matrix(1 0 0 -1 8 26)"/>
                    <path fill="#194F82" d="M10.306 6.415l.74-1.152c1.05-1.71.468-3.845-1.035-4.714C8.347-.53 6.255.072 5.297 1.585L.547 9c-1.017 1.583-.552 3.7 1.035 4.713.696.472 1.506.623 2.273.52.74 2.62 3.149 4.47 5.919 4.47 3.394 0 6.158-2.76 6.158-6.151 0-3.22-2.477-5.863-5.626-6.137zm-5.98-1.39l.848.543c.243.154.564.083.718-.157.154-.24.083-.564-.157-.718l-.848-.542.509-.792 1.956 1.25c.243.155.564.084.718-.156.154-.244.083-.564-.157-.718L5.953 2.48l.22-.342C6.77 1.165 8.278.645 9.45 1.421c1.088.7 1.417 2.123.718 3.281L7.472 8.91 3.473 6.35l.854-1.324zm-2.183 7.813c-1.1-.708-1.427-2.175-.718-3.28l1.49-2.333 4 2.56-1.491 2.332c-.694 1.045-2.065 1.44-3.281.721zm2.71 1.097c.586-.271 1.097-.702 1.445-1.26l3.368-5.256c1.21.013 2.47.45 3.342 1.162l-7.2 7.2c-.434-.534-.763-1.156-.954-1.846zm4.92 3.73c-1.213 0-2.34-.428-3.228-1.151l7.196-7.197c.721.884 1.153 2.006 1.153 3.232-.003 2.822-2.299 5.117-5.12 5.117z" transform="matrix(1 0 0 -1 8 26)"/>
                </g>
            </g>
        </g>
    </g>
</svg>
