<svg xmlns="http://www.w3.org/2000/svg" width="18" height="16" viewBox="0 0 18 16">
    <g fill="none" fill-rule="evenodd">
        <g fill="#1A4F82" fill-rule="nonzero">
            <g>
                <path d="M1.565 3.2h14.87C17.3 3.2 18 2.484 18 1.6c0-.884-.7-1.6-1.565-1.6H1.565C.7 0 0 .716 0 1.6c0 .884.7 1.6 1.565 1.6zm14.87 3.2H1.565C.7 6.4 0 7.116 0 8c0 .884.7 1.6 1.565 1.6h14.87C17.3 9.6 18 8.884 18 8c0-.884-.7-1.6-1.565-1.6zm0 6.4H1.565C.7 12.8 0 13.516 0 14.4c0 .884.7 1.6 1.565 1.6h14.87C17.3 16 18 15.284 18 14.4c0-.884-.7-1.6-1.565-1.6z" transform="translate(-16 -43) translate(16 43)"/>
            </g>
        </g>
    </g>
</svg>
