<svg xmlns="http://www.w3.org/2000/svg" width="60" height="60" viewBox="0 0 60 60">
    <g fill="none" fill-rule="evenodd">
        <g fill-rule="nonzero">
            <g>
                <path fill="#EBE7F2" d="M26.61 46.588c-.178 0-.354-.072-.481-.214-2.594-2.882-6.93-4.421-12.89-4.573-.357-.009-.638-.305-.63-.662.01-.357.307-.632.663-.63 6.328.162 10.977 1.844 13.817 5.001.24.265.217.674-.048.912-.123.112-.278.166-.432.166zM27.6 40.532c-.299 0-.567-.21-.631-.515-.073-.35.151-.691.5-.764 3.521-.733 5.826-2.531 7.047-5.497.135-.33.513-.487.843-.351.33.135.487.513.351.843-1.396 3.392-4.005 5.443-7.977 6.27-.044.01-.089.014-.132.014z" transform="translate(-270 -336) translate(270 336)"/>
                <g>
                    <path fill="#1A4F82" d="M17.363 28.429c.15.117.345.161.53.122 5.81-1.23 9.48-.338 11.551 2.806.087.131.218.227.37.268L34.49 32.9c.057.016.114.023.17.023.284 0 .544-.189.623-.476.094-.344-.11-.7-.453-.793l-4.447-1.213c-3.104-4.457-8.52-4.018-12.466-3.215-4.762-3.578-10.642-4.195-17.483-1.831-.337.117-.516.484-.4.821.117.337.485.517.822.4 6.516-2.251 12.07-1.641 16.506 1.813z" transform="translate(-270 -336) translate(270 336) translate(5.13 3)"/>
                    <path fill="#1A4F82" d="M47.754 36.3c.325-4.761-1.913-10.12-7.23-17.336-1.273-2.393-7.385-13.779-9.039-14.77-1.246-.749-8.02-2.842-11.948-4.023-1.281-.386-2.647.25-3.176 1.479l-1.988 4.61c-.288.668-.29 1.404-.004 2.074.138.325.336.61.58.85l-.155.8c-.145.748.05 1.514.535 2.101.484.588 1.2.925 1.96.925h3.159c.115 0 .228-.03.327-.09l1.205-.708c.051-.03.094-.068.134-.108l.394.147c.105.04.215.084.328.13.83.333 2.083.837 3.063-.056.558-.51.841-1.323.758-2.178-.03-.298-.15-1.055-.626-1.628-.229-.274-.635-.311-.91-.083-.274.228-.311.635-.083.91.169.203.297.559.333.927.044.445-.088.865-.342 1.097-.354.322-.932.126-1.711-.188-.123-.05-.243-.098-.358-.14l-6.64-2.485c-.346-.13-.617-.389-.763-.73-.145-.34-.145-.716.002-1.056l1.988-4.61c.27-.625.965-.95 1.617-.753C25.654 3.36 30.011 4.815 30.821 5.3c.901.541 5.072 7.702 8.584 14.312.015.028.032.055.05.08 5.206 7.054 7.364 12.198 6.998 16.678-.01.116.013.232.064.336.802 1.644.65 2.86-.478 3.827-.022.019-.043.04-.062.06-2.887 3.236-6.33 4.31-10.525 3.28-.12-.029-.245-.023-.362.016-7.204 2.448-14.514 1.921-21.727-1.564-.2-.097-.437-.084-.626.036-4.259 2.693-6.952 6.322-8.005 10.786-.082.347.134.695.48.777.05.012.1.017.15.017.292 0 .558-.2.628-.498.96-4.076 3.298-7.285 7.139-9.799 7.363 3.47 14.83 3.983 22.2 1.528 4.544 1.057 8.44-.183 11.584-3.687 1.532-1.336 1.815-3.08.841-5.186zM20.587 11.532l-.316.186H17.29c-.374 0-.726-.166-.964-.455-.238-.289-.334-.666-.263-1.033l.07-.364 4.455 1.666z" transform="translate(-270 -336) translate(270 336) translate(5.13 3)"/>
                    <path fill="#846F75" d="M30.897 29.243c-.013.356.266.656.623.668h.023c.346 0 .633-.274.645-.623l.298-8.395c.04-1.146-.194-2.3-.679-3.34L29.01 11.56c-.151-.323-.535-.462-.859-.312-.323.15-.463.535-.312.858l2.797 5.994c.399.855.592 1.805.559 2.747l-.298 8.396z" transform="translate(-270 -336) translate(270 336) translate(5.13 3)"/>
                    <path fill="#1A4F82" d="M13.02 31.747c.116-.337-.063-.704-.4-.82-.338-.115-.706.063-.822.4-1.492 4.343-4.84 7.817-9.949 10.327-.32.157-.452.545-.295.865.113.228.342.36.58.36.096 0 .193-.02.285-.066 5.427-2.666 8.994-6.389 10.601-11.066z" transform="translate(-270 -336) translate(270 336) translate(5.13 3)"/>
                </g>
                <path fill="#F9B087" d="M32.192 35.754c-.17 0-.341-.067-.468-.2-1.736-1.826-4.812-2.12-9.68-.925-.22.055-.453-.011-.613-.172-3.31-3.338-8.374-3.99-15.481-1.993-.344.096-.7-.104-.797-.447-.097-.344.104-.7.447-.797 7.316-2.055 12.86-1.358 16.485 2.07 5.167-1.214 8.532-.775 10.575 1.374.246.258.235.667-.023.913-.125.119-.285.177-.445.177z" transform="translate(-270 -336) translate(270 336)"/>
                <path fill="#F9B087" d="M5.775 35.754c-.275 0-.53-.176-.616-.453-.107-.34.083-.702.423-.809 4.229-1.323 7.483-1.506 9.95-.558.334.128.5.502.372.835-.128.333-.502.499-.835.371-2.185-.84-5.162-.648-9.1.585-.065.02-.13.03-.194.03z" transform="translate(-270 -336) translate(270 336)"/>
                <path fill="#EBE7F2" d="M5.775 39.021c-.27 0-.521-.17-.612-.44-.114-.338.068-.704.406-.818 3.917-1.319 6.627-1.528 8.532-.66.324.148.467.531.32.856-.149.325-.532.468-.856.32-1.566-.715-4.047-.483-7.584.708-.068.024-.138.034-.206.034z" transform="translate(-270 -336) translate(270 336)"/>
                <g fill="#F9B087">
                    <path d="M.646 28.608c-.177 0-.353-.072-.48-.214-.239-.265-.217-.674.048-.912 1.21-1.087 3.592-2.014 5.799-1.682.353.053.596.381.543.734-.053.353-.381.598-.735.543-1.793-.27-3.783.503-4.743 1.366-.124.11-.278.165-.432.165zM2.134 35.213c-.27 0-.523-.172-.613-.442-.113-.339.07-.705.409-.817 3.43-1.142 5.762-2.733 7.126-4.864.192-.3.592-.387.892-.195.3.192.388.592.196.892-1.509 2.357-4.135 4.17-7.806 5.393-.067.022-.136.033-.204.033zM44.652 27.338c-.324 0-.604-.243-.64-.573-.618-5.457-2.46-10.443-5.479-14.82-.009-.012-.017-.026-.026-.04L32.157 1.05c-.18-.308-.076-.703.232-.883.308-.18.703-.077.883.231l6.338 10.836c3.132 4.547 5.045 9.724 5.685 15.387.04.355-.215.675-.57.715-.024.002-.048.003-.073.003z" transform="translate(-270 -336) translate(270 336) translate(5.13 14.11)"/>
                    <path d="M41.795 29.307c-.338 0-.622-.262-.644-.604-.393-6.084-2.474-11.751-6.363-17.326-.204-.293-.132-.695.16-.9.293-.204.696-.132.9.161 3.971 5.694 6.19 11.744 6.592 17.981.023.357-.247.664-.603.687l-.042.001zM28.172 32.431c-1.255 0-2.524-.09-3.804-.273-.353-.05-.598-.378-.548-.73.05-.354.376-.6.73-.55 4.835.69 9.498.008 13.861-2.025.323-.15.708-.01.858.313.151.323.011.707-.312.858-3.438 1.602-7.052 2.407-10.785 2.407z" transform="translate(-270 -336) translate(270 336) translate(5.13 14.11)"/>
                </g>
                <path fill="#EBE7F2" d="M28.572 42.718c-.335 0-.62-.259-.644-.599-.026-.356.242-.665.598-.69 3.422-.25 6.006-1.83 7.902-4.83.19-.302.59-.392.89-.202.302.19.393.59.202.891-2.1 3.326-5.095 5.152-8.9 5.429l-.048.001z" transform="translate(-270 -336) translate(270 336)"/>
                <path fill="#F9B087" d="M29.588 44.497c-.346 0-.633-.275-.645-.625-.012-.356.267-.655.624-.667 4.414-.15 8.243-1.439 11.378-3.833.283-.217.688-.162.905.122.216.283.162.688-.121.905-3.353 2.56-7.43 3.939-12.118 4.097h-.023zM28.954 37.59c-.07 0-.142-.012-.212-.036-2.116-.732-4.773-.831-8.12-.305-.354.056-.683-.185-.738-.537-.056-.353.185-.683.537-.739 3.561-.56 6.422-.443 8.744.36.337.117.516.485.4.822-.093.267-.344.435-.611.435z" transform="translate(-270 -336) translate(270 336)"/>
                <path fill="#EBE7F2" d="M25.452 40.626c-.09 0-.181-.02-.268-.06-2.08-.95-4.256-.936-6.488-.833-.355.013-.658-.259-.675-.615-.016-.357.26-.659.615-.675 2.3-.107 4.743-.12 7.085.949.324.148.467.531.319.856-.109.237-.343.378-.588.378zM40.448 34.084c-.045 0-.092-.005-.138-.015-.349-.076-.57-.42-.494-.768.366-1.681.017-3.217-1.068-4.696-.211-.288-.15-.692.138-.903.289-.211.693-.149.903.139 1.3 1.77 1.733 3.7 1.29 5.735-.066.302-.334.508-.631.508z" transform="translate(-270 -336) translate(270 336)"/>
                <path fill="#F9B087" d="M7.411 17.57H5.727c-.357 0-.646-.289-.646-.646 0-.357.289-.646.646-.646H7.41c1.848 0 3.351-1.503 3.351-3.35v-1.686c0-.356.29-.646.646-.646.357 0 .646.29.646.646v1.685c0 2.56-2.082 4.643-4.643 4.643zM19.377 17.57h-1.685c-2.56 0-4.643-2.083-4.643-4.643v-1.685c0-.356.29-.646.646-.646.357 0 .646.29.646.646v1.685c0 1.848 1.503 3.351 3.351 3.351h1.685c.357 0 .646.29.646.646 0 .357-.29.646-.646.646zM13.695 25.487c-.357 0-.646-.289-.646-.646v-1.685c0-2.56 2.083-4.642 4.643-4.642h1.685c.357 0 .646.289.646.646 0 .357-.29.646-.646.646h-1.685c-1.848 0-3.351 1.503-3.351 3.35v1.685c0 .357-.29.646-.646.646zM11.408 25.487c-.356 0-.646-.289-.646-.646v-1.685c0-1.847-1.503-3.35-3.35-3.35H5.727c-.357 0-.646-.29-.646-.646 0-.357.289-.646.646-.646h1.685c2.56 0 4.642 2.083 4.642 4.642v1.685c0 .357-.289.646-.646.646z" transform="translate(-270 -336) translate(270 336)"/>
            </g>
        </g>
    </g>
</svg>
