<svg xmlns="http://www.w3.org/2000/svg" width="60" height="60" viewBox="0 0 60 60">
    <g fill="none" fill-rule="evenodd">
        <g fill-rule="nonzero">
            <g>
                <path fill="#EBE7F2" d="M16.375 41.946c-.279 0-.53-.194-.59-.478-.207-.985-.312-1.998-.312-3.013 0-8.01 6.516-14.528 14.527-14.528.333 0 .602.27.602.603 0 .333-.27.603-.602.603-7.346 0-13.322 5.976-13.322 13.322 0 .931.097 1.861.287 2.764.069.326-.14.646-.465.714-.042.01-.084.013-.125.013zM30 52.982c-2.575 0-5.106-.683-7.318-1.975-.287-.168-.384-.537-.216-.825.168-.287.537-.384.825-.216 2.027 1.184 4.347 1.81 6.71 1.81 7.345 0 13.321-5.976 13.321-13.321 0-1.418-.221-2.813-.658-4.147-.103-.316.07-.656.386-.76.316-.103.657.07.76.386.476 1.455.717 2.976.717 4.52 0 8.01-6.517 14.528-14.527 14.528z" transform="translate(-270 -204) translate(270 204)"/>
                <path fill="#F9B087" d="M32.858 39.54c-1.131 0-1.725-.29-2.25-.543-.317-.155-.592-.288-.994-.362-.327-.06-.544-.375-.483-.702.06-.328.374-.545.702-.484.563.104.956.295 1.302.463.467.226.869.422 1.724.422.854 0 1.257-.196 1.723-.422.524-.254 1.118-.542 2.25-.542s1.726.288 2.25.542c.438.213.817.397 1.566.42.332.01.594.288.584.62-.01.333-.293.588-.621.584-1.007-.03-1.564-.301-2.055-.54-.467-.226-.87-.421-1.724-.421-.855 0-1.257.195-1.723.422-.525.254-1.119.542-2.25.542z" transform="translate(-270 -204) translate(270 204)"/>
                <g fill="#1A4F82">
                    <path d="M53.82 13.193l-5.189-5.19c-2.655-2.656-6.185-4.119-9.94-4.119h-5.807v-3.2c0-.332-.27-.602-.603-.602-.333 0-.602.27-.602.603v3.802c0 .333.27.603.602.603h6.41c3.433 0 6.66 1.337 9.088 3.765l5.188 5.19c.118.118.272.177.426.177.155 0 .309-.059.426-.176.236-.236.236-.617 0-.853zM44.691 17.474c-.172-.173-.432-.224-.657-.13-.225.092-.372.312-.372.556v7.723c0 .332.27.602.603.602.333 0 .603-.27.603-.602v-6.268l7.908 7.908c.118.118.272.177.426.177.155 0 .309-.06.427-.177.235-.235.235-.617 0-.852l-8.938-8.937zM9.774 17.343c-.224-.093-.484-.042-.656.13L.18 26.412c-.236.235-.236.617 0 .852.117.118.271.177.426.177.154 0 .308-.06.426-.177l7.908-7.908v6.268c0 .332.27.602.603.602.333 0 .603-.27.603-.602V17.9c0-.244-.147-.464-.373-.557zM.607 14.03c.154 0 .308-.058.426-.176L6.03 8.855c2.427-2.428 5.654-3.765 9.088-3.765h6.409c.333 0 .602-.27.602-.603V.685c0-.333-.27-.603-.602-.603-.333 0-.603.27-.603.603v3.2h-5.806c-3.756 0-7.286 1.462-9.941 4.118L.181 13.002c-.236.235-.236.617 0 .852.117.118.271.177.426.177zM36.188 25.957c-1.09-.543-2.419-.531-3.528-.05-.265-1.074-.388-2.238-.13-3.328.224-.946-.333-1.941-1.282-2.19-.944-.246-1.944.345-2.189 1.284-.604 2.315-.07 4.346.448 6.31.268 1.015.515 2.32.05 3.4-.925 2.14-3.416 3.57-5.591 4.045-1.907.416-3.872.45-5.786.825-2.526.493-3.938 2.082-3.975 4.473-.02 1.288.215 2.584.644 3.797.37 1.046.865 2.322 2.178 2.32.256 0 .505-.054.74-.16.9-.408 1.3-1.473.893-2.374-.448-.99-.778-2.008-.916-3.089-.044-.336-.119-.76.34-.822.356-.048.946.203 1.54.659.795.61 1.672 1.127 2.604 1.538 3.99 1.757 8.816 1.445 12.01-.778 3.545-2.467 5.467-7.55 4.57-12.087-.34-1.716-1.32-3.126-2.62-3.773zm-2.64 14.871c-2.86 1.991-7.215 2.258-10.835.664-.844-.372-1.637-.84-2.355-1.391-.622-.477-1.549-1.02-2.44-.897-.457.063-.85.3-1.138.683-.361.483-.287 1.063-.232 1.487.155 1.208.513 2.324 1.014 3.432.134.296.002.645-.293.779-.291.132-.65-.007-.779-.292-.635-1.4-1.104-2.98-1.08-4.549.029-1.812 1.038-2.925 3.001-3.309 1.923-.375 3.896-.411 5.812-.83 2.528-.551 5.374-2.277 6.44-4.745.612-1.419.327-2.981.01-4.184-.5-1.898-.972-3.69-.448-5.7.077-.292.417-.499.718-.42.317.083.5.418.418.73-.404 1.551-.092 3.174.334 4.683.108.386.594.56.922.333.853-.589 2.08-.74 3.035-.266.968.482 1.705 1.576 1.973 2.928.808 4.089-.906 8.658-4.076 10.864z" transform="translate(-270 -204) translate(270 204) translate(3 3)"/>
                </g>
                <path fill="#F9B087" d="M30 56.917c-10.18 0-18.462-8.282-18.462-18.463 0-10.18 8.282-18.462 18.462-18.462s18.462 8.282 18.462 18.462S40.18 56.917 30 56.917zm0-35.72c-9.516 0-17.257 7.742-17.257 17.257 0 9.516 7.741 17.257 17.257 17.257 9.516 0 17.257-7.741 17.257-17.257 0-9.515-7.741-17.256-17.257-17.256z" transform="translate(-270 -204) translate(270 204)"/>
                <g fill="#EBE7F2">
                    <path d="M25.972 29.44c-.978 0-1.773-.796-1.773-1.773 0-.978.795-1.773 1.773-1.773.977 0 1.772.795 1.772 1.773 0 .977-.795 1.772-1.772 1.772zm0-2.34c-.313 0-.568.254-.568.567 0 .312.255.567.568.567.312 0 .567-.255.567-.567 0-.313-.255-.568-.567-.568zM31.058 29.44c-.977 0-1.772-.796-1.772-1.773 0-.978.795-1.773 1.772-1.773.978 0 1.773.795 1.773 1.773 0 .977-.795 1.772-1.773 1.772zm0-2.34c-.312 0-.567.254-.567.567 0 .312.255.567.567.567.313 0 .568-.255.568-.567 0-.313-.255-.568-.568-.568zM53.01 10.277c-.154 0-.308-.059-.426-.176L46.06 3.576c-1.473-1.474-3.433-2.285-5.517-2.285H12.784c-2.084 0-4.043.811-5.517 2.285L1.04 9.802c-.235.236-.617.236-.852 0-.235-.235-.235-.616 0-.852l6.227-6.226c1.7-1.702 3.963-2.639 6.37-2.639h27.757c2.406 0 4.668.937 6.37 2.639l6.525 6.524c.235.236.235.617 0 .853-.118.117-.272.176-.426.176z" transform="translate(-270 -204) translate(270 204) translate(3.241 14.21)"/>
                </g>
            </g>
        </g>
    </g>
</svg>
