<svg xmlns="http://www.w3.org/2000/svg" width="60" height="60" viewBox="0 0 60 60">
    <g fill="none" fill-rule="evenodd">
        <g fill-rule="nonzero">
            <g>
                <path fill="#EBE7F2" d="M22.385 10.138C20.878 15.416 17.345 17.53 12 18.56c-.225 1.13-.342 2.298-.342 3.493 5.762-1.047 9.482-3.268 10.904-9.16 4.652 6.552 16.7 11.023 26.752 9.16 0-1.152-.11-2.28-.319-3.372-9.697 1.663-21.148-2.482-26.016-8.66-.172-.218-.518-.149-.594.118z" transform="translate(-150 -204) translate(150 204)"/>
                <g fill="#1A4F82">
                    <path d="M28.825 21.476c0-1.015-.823-1.839-1.839-1.839-1.015 0-1.839.824-1.839 1.84 0 1.015.824 1.839 1.84 1.839 1.015 0 1.838-.824 1.838-1.84zM11.985 19.637c-1.015 0-1.839.824-1.839 1.84 0 1.015.824 1.839 1.84 1.839 1.015 0 1.839-.824 1.839-1.84 0-1.015-.824-1.839-1.84-1.839zM19.486 28.947c-1.632 0-3.166.636-4.32 1.791-.25.25-.25.652 0 .9.248.25.651.25.9 0 .914-.914 2.129-1.417 3.42-1.417s2.506.503 3.42 1.418c.124.124.288.186.45.186.164 0 .326-.062.45-.186.25-.249.25-.652 0-.9-1.154-1.156-2.689-1.792-4.32-1.792z" transform="translate(-150 -204) translate(150 204) translate(11 3)"/>
                    <path d="M19.486.096C8.753.096.02 8.6.02 19.052c0 .188.084.367.229.488.145.121.336.172.522.138 6.232-1.132 9.528-3.6 11.064-8.399 4.495 5.296 13.462 8.824 21.786 8.824 1.64 0 3.257-.138 4.808-.425.302-.056.521-.32.521-.626C38.951 8.6 30.22.096 19.486.096zm-7.404 9.428c-.121-.17-.316-.269-.52-.269-.04 0-.08.004-.12.012-.245.047-.44.233-.499.476-1.182 4.899-3.908 7.338-9.631 8.532.42-9.391 8.41-16.905 18.174-16.905 9.847 0 17.892 7.643 18.183 17.147-9.394 1.515-21-2.532-25.587-8.993zM37.987 22.922c-.352 0-.637.285-.637.637 0 7.386-4.172 14.078-10.63 17.05-.226.104-.37.33-.37.578v7.405c0 .352.284.637.636.637.352 0 .637-.285.637-.637V41.59C34.32 38.33 38.624 31.298 38.624 23.56c0-.352-.285-.637-.637-.637zM12.259 40.516C5.921 37.5 1.826 30.846 1.826 23.559c0-.352-.285-.637-.637-.637-.352 0-.637.285-.637.637 0 7.635 4.225 14.627 10.797 17.93v7.103c0 .352.285.637.636.637.352 0 .637-.285.637-.637v-7.501c0-.246-.141-.47-.363-.575z" transform="translate(-150 -204) translate(150 204) translate(11 3)"/>
                </g>
                <g fill="#F9B087">
                    <path d="M11.769 10.88c-.235 0-.47-.087-.658-.26-.354-.321-.425-.83-.173-1.238l1.364-2.201h-.32c-.41 0-.787-.222-.987-.58-.199-.357-.188-.795.027-1.143L14.009.636c.207-.334.566-.534.959-.534h2.916c.409 0 .787.222.986.58.199.356.188.795-.027 1.143l-1.88 3.035c.383.083.694.356.824.744.157.467.005.961-.388 1.259l-5.039 3.814c-.178.136-.385.202-.591.202zm.473-4.973h.799c.313 0 .601.17.753.443.152.273.144.608-.02.873l-.918 1.482 3.506-2.654c-.264-.088-.49-.272-.63-.522-.199-.357-.189-.795.026-1.143l1.865-3.01H15.05l-2.807 4.531zM29.105 8.264c-.052 0-.104-.007-.157-.02l-2.433-.616c-.341-.087-.547-.433-.461-.774.087-.34.433-.547.774-.46l2.433.615c.34.087.547.433.46.774-.072.288-.331.48-.616.48zM24.296 13.277c-.278 0-.533-.183-.612-.464L23 10.398c-.095-.338.101-.69.44-.786.339-.096.69.101.786.44l.683 2.415c.096.338-.1.69-.44.786-.057.016-.116.024-.173.024zM25.458 3.175c-.16 0-.32-.06-.444-.18-.252-.246-.258-.65-.013-.901l1.75-1.8c.246-.252.649-.257.901-.012.252.246.258.648.013.9l-1.75 1.8c-.125.128-.291.193-.457.193zM.697 8.264c-.285 0-.544-.193-.617-.481-.086-.34.12-.687.461-.774l2.434-.616c.34-.087.687.12.773.461.087.341-.12.687-.46.774l-2.434.616c-.053.013-.105.02-.157.02zM5.506 13.277c-.057 0-.115-.008-.174-.024-.338-.096-.535-.448-.44-.786l.684-2.416c.096-.338.447-.535.786-.44.338.097.535.448.44.787l-.683 2.415c-.08.28-.335.464-.613.464zM4.344 3.175c-.166 0-.332-.065-.457-.193l-1.75-1.8c-.245-.252-.24-.654.013-.9.252-.245.655-.24.9.013L4.8 2.094c.246.252.24.655-.012.9-.124.12-.284.18-.444.18z" transform="translate(-150 -204) translate(150 204) translate(15.585 43.627)"/>
                </g>
            </g>
        </g>
    </g>
</svg>
