<svg xmlns="http://www.w3.org/2000/svg" width="60" height="60" viewBox="0 0 60 60">
    <g fill="none" fill-rule="evenodd">
        <g fill-rule="nonzero">
            <g>
                <g>
                    <path fill="#846F75" d="M19.006 46.28l-5.78 6.62c-.239.274-.21.69.063.93.125.108.28.162.433.162.184 0 .366-.077.496-.226l5.78-6.62c.24-.275.211-.69-.063-.93-.273-.238-.69-.21-.929.063z" transform="translate(-150 -472) translate(150 472) translate(4 3)"/>
                    <path fill="#1A4F82" d="M50.328 15.866c-.596-.596-1.353-.935-2.133-1.017l.63-.63c1.381-1.381 1.381-3.63 0-5.011-.597-.596-1.354-.935-2.133-1.017l.63-.63c1.38-1.381 1.38-3.63 0-5.012-1.383-1.381-3.631-1.381-5.013 0l-.63.63c-.081-.78-.42-1.537-1.016-2.133-1.382-1.382-3.63-1.382-5.012 0l-11.65 11.65-.173-.023.322-5.906c.137-2.508-1.793-4.66-4.3-4.797l-.053-.003c-1.37-.078-2.538.976-2.612 2.342l-.462 8.483-2.71 6.752c-1.417 3.529-2.507 7.208-3.242 10.94L.238 39.207c-.28.232-.319.647-.087.927.13.157.318.238.508.238.148 0 .297-.05.42-.151l10.713-8.874c.118-.098.198-.233.227-.383.72-3.729 1.801-7.406 3.216-10.93l2.75-6.853c.027-.067.042-.138.046-.21l.468-8.59c.035-.642.583-1.135 1.225-1.1l.052.003c1.783.097 3.155 1.627 3.058 3.41l-.355 6.52c-.02.345.232.646.575.69l1.102.138c.203.026.405-.044.548-.188L36.582 1.977c.868-.867 2.28-.868 3.15 0 .868.869.868 2.282 0 3.15L27.853 17.005c-.129.128-.193.297-.193.465 0 .169.064.338.193.466.257.258.674.258.93 0L43.24 3.481c.868-.868 2.28-.868 3.15 0 .868.869.868 2.282 0 3.15L31.934 21.086c-.258.257-.258.674 0 .931.257.258.674.258.93 0l11.891-11.89c.87-.856 2.273-.851 3.137.013.868.868.868 2.281 0 3.15L36.015 25.166c-.128.128-.192.297-.192.466 0 .168.064.337.192.465.257.258.675.258.932 0l9.3-9.3c.868-.868 2.281-.868 3.15 0 .42.42.652.98.652 1.575s-.232 1.154-.653 1.575L34.072 35.273c-.258.257-.258.674 0 .931.257.257.674.257.93 0l15.325-15.325c.67-.67 1.039-1.56 1.039-2.506 0-.948-.369-1.838-1.038-2.507z" transform="translate(-150 -472) translate(150 472) translate(4 3)"/>
                </g>
                <path fill="#EBE7F2" d="M30.687 48.449c-3.737 0-6.776-3.04-6.776-6.776 0-.364.294-.659.658-.659.364 0 .659.295.659.659 0 3.01 2.448 5.459 5.459 5.459 3.01 0 5.458-2.449 5.458-5.459 0-.364.295-.659.659-.659.364 0 .658.295.658.659 0 3.736-3.04 6.776-6.775 6.776z" transform="translate(-150 -472) translate(150 472)"/>
                <g fill="#65C1D6">
                    <path d="M8.51 25.693c-3.984 0-7.226-3.242-7.226-7.227 0-5.193 6.585-9.58 6.865-9.764.22-.144.504-.145.724 0 .28.184 6.865 4.571 6.865 9.764 0 3.985-3.242 7.227-7.227 7.227zm0-15.637c-1.335.968-5.909 4.564-5.909 8.41 0 3.259 2.651 5.91 5.91 5.91 3.259 0 5.91-2.651 5.91-5.91 0-3.846-4.574-7.442-5.91-8.41zM.664 12.338c-.085 0-.17-.016-.252-.05-.246-.102-.406-.342-.406-.608V7.769c0-.175.07-.343.193-.466l4.098-4.099c.124-.123.29-.192.466-.192h3.475l2.78-2.78c.173-.174.43-.236.664-.162.235.074.408.273.45.516l.547 3.16c.036.21-.032.426-.184.577L9.611 7.207c-.123.124-.29.193-.466.193h-3.27L1.13 12.145c-.126.126-.294.193-.466.193zm.659-4.296v2.048l3.814-3.814c.123-.123.29-.193.465-.193h3.27l2.45-2.45-.271-1.571-2.074 2.074c-.124.123-.291.193-.466.193H5.035L1.323 8.042z" transform="translate(-150 -472) translate(150 472) translate(22.176 25.39)"/>
                </g>
            </g>
        </g>
    </g>
</svg>
