<svg xmlns="http://www.w3.org/2000/svg" width="74" height="28" viewBox="0 0 74 28">
    <g fill="none" fill-rule="evenodd">
        <g fill-rule="nonzero">
            <g>
                <path fill="#1A4F82" d="M5.533 21.701c1.432 0 2.69-.174 3.774-.522.278-.14.417-.363.417-.671v-2.431c0-.21-.07-.388-.208-.537-.15-.15-.329-.224-.537-.224-.06 0-.115.005-.164.015-.398.14-.731.209-1 .209-.308 0-.571-.11-.79-.328-.219-.22-.328-.483-.328-.79v-6.16h2.267c.209 0 .388-.075.537-.224.149-.15.223-.328.223-.537V6.906c0-.21-.074-.388-.223-.537-.15-.15-.328-.224-.537-.224H6.697V2.849c0-.219-.07-.403-.21-.552-.148-.14-.332-.209-.55-.209H2.684c-.21 0-.388.07-.537.209-.14.149-.21.333-.21.552v3.296H.762c-.21 0-.388.074-.537.224-.15.149-.224.328-.224.537v2.61c0 .218.075.397.224.537.149.149.328.223.537.223h1.163v7.696c0 1.054.323 1.934.97 2.64.676.726 1.556 1.089 2.64 1.089zm10.664-.283c.21 0 .388-.075.537-.224.15-.15.224-.328.224-.537v-6.995c.04-1.332.383-2.292 1.03-2.879.616-.507 1.391-.76 2.326-.76.676 0 1.283.204 1.82.611.447.348.705.532.775.552.209.07.398.04.567-.09.159-.119.238-.288.238-.507V6.801c0-.328-.154-.552-.462-.671-.547-.14-1.089-.209-1.626-.209-1.909 0-3.465.701-4.668 2.103V6.891c0-.21-.074-.388-.224-.537-.149-.15-.328-.224-.537-.224h-4.295c-.16 0-.298.055-.418.164-.109.12-.164.259-.164.418 0 .189.085.343.254.462.07.05.134.104.194.164.278.278.417.612.417 1v12.319c0 .209.07.388.21.537.148.149.327.224.536.224h3.266zM27.831 4.922c.676 0 1.253-.239 1.73-.716.487-.477.73-1.059.73-1.745 0-.676-.243-1.253-.73-1.73C29.084.244 28.507 0 27.831 0c-.686 0-1.268.244-1.745.73-.487.478-.73 1.055-.73 1.73 0 .687.243 1.269.73 1.746.477.477 1.059.716 1.745.716zm1.626 16.496c.208 0 .387-.075.537-.224.149-.15.223-.328.223-.537V6.906c0-.21-.074-.388-.223-.537-.15-.15-.329-.224-.537-.224H25.16c-.159 0-.298.055-.417.164-.11.12-.164.258-.164.418 0 .188.084.343.253.462.07.05.134.104.194.164.268.268.408.597.418.984v12.32c0 .209.07.388.208.537.15.149.329.224.537.224h3.267z" transform="translate(-50 -37) translate(50 37)"/>
                <path fill="#FFC10D" d="M37.436 27.473c.209 0 .388-.075.537-.224.15-.149.224-.328.224-.537v-6.681c1.352 1.123 2.863 1.685 4.534 1.685 2.018 0 3.773-.77 5.265-2.312 1.511-1.561 2.267-3.42 2.267-5.578 0-2.158-.756-4.017-2.267-5.578-1.442-1.492-3.197-2.262-5.265-2.312-.845 0-1.7.17-2.566.507-.705.289-1.362.686-1.968 1.193V6.92c0-.208-.075-.387-.224-.536-.15-.15-.328-.224-.537-.224h-4.295c-.16 0-.299.054-.418.164-.11.12-.164.258-.164.417 0 .19.084.344.254.463.07.05.134.104.193.164.279.268.418.596.418.984v18.36c0 .21.075.388.224.537.139.15.318.224.537.224h3.251zm4.37-9.859c-1.034 0-1.914-.368-2.64-1.103-.736-.746-1.103-1.641-1.103-2.685s.367-1.939 1.103-2.685c.726-.735 1.606-1.103 2.64-1.103s1.92.368 2.655 1.103c.726.746 1.089 1.641 1.089 2.685s-.363 1.939-1.09 2.685c-.735.735-1.62 1.103-2.654 1.103z" transform="translate(-50 -37) translate(50 37)"/>
                <path fill="#1A4F82" d="M54.871 4.922c.677 0 1.253-.239 1.73-.716.488-.477.731-1.059.731-1.745 0-.676-.243-1.253-.73-1.73C56.124.244 55.548 0 54.872 0c-.687 0-1.268.244-1.746.73-.487.478-.73 1.055-.73 1.73 0 .687.243 1.269.73 1.746.478.477 1.06.716 1.745.716zm1.626 16.496c.209 0 .388-.075.537-.224.15-.15.224-.328.224-.537V6.906c0-.21-.075-.388-.224-.537-.15-.15-.328-.224-.537-.224h-4.295c-.16 0-.299.055-.418.164-.11.12-.164.258-.164.418 0 .188.085.343.254.462.07.05.134.104.193.164.269.268.408.597.418.984v12.32c0 .209.07.388.209.537.149.149.328.224.537.224h3.266zm8.024 0c.21 0 .388-.075.537-.224.15-.15.224-.328.224-.537V1.745c0-.209-.075-.388-.224-.537-.149-.15-.328-.224-.537-.224h-4.295c-.16 0-.298.055-.418.164-.11.11-.164.244-.164.403 0 .199.085.358.254.477.07.05.134.105.194.164.278.269.417.597.417.985v17.48c0 .209.07.388.209.537.15.149.328.224.537.224h3.266zm7.98 0c.209 0 .387-.075.537-.224.149-.15.223-.328.223-.537V1.745c0-.209-.074-.388-.223-.537-.15-.15-.328-.224-.537-.224h-4.296c-.159 0-.298.055-.417.164-.11.11-.164.244-.164.403 0 .199.084.358.253.477.07.05.134.105.194.164.278.269.418.597.418.985v17.48c0 .209.07.388.208.537.15.149.329.224.537.224h3.267z" transform="translate(-50 -37) translate(50 37)"/>
            </g>
        </g>
    </g>
</svg>
