<svg xmlns="http://www.w3.org/2000/svg" width="117" height="154" viewBox="0 0 117 154">
    <g fill="none" fill-rule="evenodd">
        <g fill-rule="nonzero">
            <g>
                <g>
                    <path fill="#1A4F82" d="M8.695 34.102c2.25 0 4.227-.274 5.93-.82.438-.22.656-.571.656-1.055v-3.82c0-.329-.11-.61-.328-.845-.234-.234-.515-.351-.844-.351-.093 0-.18.008-.257.023-.625.22-1.149.328-1.57.328-.485 0-.9-.171-1.243-.515-.344-.344-.516-.758-.516-1.242v-9.68h3.563c.328 0 .61-.117.844-.352.234-.234.351-.515.351-.843v-4.078c0-.329-.117-.61-.351-.844-.235-.235-.516-.352-.844-.352h-3.563v-5.18c0-.343-.109-.632-.328-.867-.234-.218-.523-.328-.867-.328h-5.11c-.327 0-.609.11-.843.328-.219.235-.328.524-.328.868v5.18H1.195c-.328 0-.61.116-.843.35-.235.235-.352.516-.352.845v4.101c0 .344.117.625.352.844.234.234.515.351.843.351h1.828v12.094c0 1.656.508 3.04 1.524 4.149 1.062 1.14 2.445 1.71 4.148 1.71zm16.758-.446c.328 0 .61-.117.844-.351.234-.235.351-.516.351-.844V21.469c.063-2.094.602-3.602 1.618-4.524.968-.797 2.187-1.195 3.656-1.195 1.062 0 2.015.32 2.86.96.702.548 1.109.837 1.218.868.328.11.625.063.89-.14.25-.188.376-.454.376-.797v-5.953c0-.516-.243-.868-.727-1.055-.86-.219-1.71-.328-2.555-.328-3 0-5.445 1.101-7.336 3.304v-1.78c0-.329-.117-.61-.351-.845-.235-.234-.516-.351-.844-.351h-6.75c-.25 0-.469.086-.656.258-.172.187-.258.406-.258.656 0 .297.133.539.398.726.11.079.211.165.305.258.438.438.656.961.656 1.57v19.36c0 .328.11.61.329.844.234.234.515.351.843.351h5.133zM43.734 7.734c1.063 0 1.97-.375 2.72-1.125.765-.75 1.148-1.664 1.148-2.742 0-1.062-.383-1.969-1.149-2.719C45.703.383 44.797 0 43.734 0c-1.078 0-1.992.383-2.742 1.148-.765.75-1.148 1.657-1.148 2.72 0 1.077.383 1.991 1.148 2.741.75.75 1.664 1.125 2.742 1.125zm2.555 25.922c.328 0 .61-.117.844-.351.234-.235.351-.516.351-.844V10.85c0-.328-.117-.609-.351-.843-.235-.235-.516-.352-.844-.352h-6.75c-.25 0-.469.086-.656.258-.172.188-.258.406-.258.656 0 .297.133.54.398.727.11.078.211.164.305.258.422.422.64.937.656 1.547V32.46c0 .328.11.61.328.844.235.234.516.351.844.351h5.133z" transform="translate(-121 -160) translate(121 160) translate(.469 92.344)"/>
                    <path fill="#FFC10D" d="M58.828 43.172c.328 0 .61-.117.844-.352.234-.234.351-.515.351-.843v-10.5c2.125 1.765 4.5 2.648 7.125 2.648 3.172 0 5.93-1.21 8.274-3.633 2.375-2.453 3.562-5.375 3.562-8.765 0-3.391-1.187-6.313-3.562-8.766-2.266-2.344-5.024-3.555-8.274-3.633-1.328 0-2.671.266-4.03.797-1.11.453-2.141 1.078-3.095 1.875v-1.125c0-.328-.117-.61-.351-.844-.234-.234-.516-.351-.844-.351h-6.75c-.25 0-.469.086-.656.258-.172.187-.258.406-.258.656 0 .297.133.539.398.726.11.078.211.164.305.258.438.422.656.938.656 1.547v28.852c0 .328.118.609.352.843.219.235.5.352.844.352h5.11zm6.867-15.492c-1.625 0-3.007-.578-4.148-1.735-1.156-1.172-1.734-2.578-1.734-4.218 0-1.641.578-3.047 1.734-4.22 1.14-1.155 2.523-1.734 4.148-1.734 1.625 0 3.016.579 4.172 1.735 1.14 1.172 1.711 2.578 1.711 4.219 0 1.64-.57 3.046-1.71 4.218-1.157 1.157-2.548 1.735-4.173 1.735z" transform="translate(-121 -160) translate(121 160) translate(.469 92.344)"/>
                    <path fill="#1A4F82" d="M86.227 7.734c1.062 0 1.968-.375 2.718-1.125.766-.75 1.149-1.664 1.149-2.742 0-1.062-.383-1.969-1.149-2.719C88.195.383 87.29 0 86.227 0c-1.079 0-1.993.383-2.743 1.148-.765.75-1.148 1.657-1.148 2.72 0 1.077.383 1.991 1.148 2.741.75.75 1.664 1.125 2.743 1.125zm2.554 25.922c.328 0 .61-.117.844-.351.234-.235.352-.516.352-.844V10.85c0-.328-.118-.609-.352-.843-.234-.235-.516-.352-.844-.352h-6.75c-.25 0-.469.086-.656.258-.172.188-.258.406-.258.656 0 .297.133.54.399.727.109.078.21.164.304.258.422.422.64.937.657 1.547V32.46c0 .328.109.61.328.844.234.234.515.351.843.351h5.133zm12.61 0c.328 0 .609-.117.843-.351.235-.235.352-.516.352-.844V2.742c0-.328-.117-.61-.352-.844-.234-.234-.515-.351-.843-.351h-6.75c-.25 0-.47.086-.657.258-.171.172-.257.383-.257.633 0 .312.132.562.398.75.11.078.21.164.305.257.437.422.656.938.656 1.547v27.469c0 .328.11.61.328.844.234.234.516.351.844.351h5.133zm12.539 0c.328 0 .61-.117.843-.351.235-.235.352-.516.352-.844V2.742c0-.328-.117-.61-.352-.844-.234-.234-.515-.351-.843-.351h-6.75c-.25 0-.47.086-.657.258-.171.172-.257.383-.257.633 0 .312.132.562.398.75.11.078.211.164.305.257.437.422.656.938.656 1.547v27.469c0 .328.11.61.328.844.234.234.516.351.844.351h5.133z" transform="translate(-121 -160) translate(121 160) translate(.469 92.344)"/>
                </g>
                <g>
                    <path fill="#FFF" d="M21.715 23.368l-3.556-2.276-3.568 5.56 16.782 10.744 11.313-17.662c2.922-4.848 1.552-10.834-3.012-13.77-4.926-3.257-11.262-1.06-13.757 3.013l-.918 1.436 8.21 5.249c1.021.646 1.319 1.991.66 3.012-.647 1.022-1.992 1.32-3.013.66l-8.21-5.25-2.12 3.336 3.555 2.276c1.021.646 1.319 1.99.66 3.012-.673 1.009-2.018 1.293-3.026.66z" transform="translate(-121 -160) translate(121 160) matrix(1 0 0 -1 26 79)"/>
                    <g fill="#FFC10D">
                        <path d="M42.294 21.678c0-5.146-1.823-9.865-4.836-13.563L7.255 38.305c3.724 3.026 8.469 4.836 13.55 4.836 11.856 0 21.489-9.632 21.489-21.463zM34.381 5.025C30.722 2.04 25.434.203 20.353.151L6.22 22.221C4.773 24.55 2.614 26.36.157 27.51c.802 2.897 2.198 5.508 4.021 7.732L34.381 5.025z" transform="translate(-121 -160) translate(121 160) matrix(1 0 0 -1 26 79) translate(20.2 31)"/>
                    </g>
                    <path fill="#56ACE0" d="M8.992 53.88c5.12 3.026 10.86 1.358 13.77-3.012l6.258-9.787-16.783-10.745-6.257 9.788c-2.974 4.603-1.616 10.783 3.012 13.757z" transform="translate(-121 -160) translate(121 160) matrix(1 0 0 -1 26 79)"/>
                    <path fill="#FFC10D" d="M37.32 9.65c-1.37-1.138-5.546-1.85-7.744 1.693l-8.96 14.003 9.438 6.038 8.96-13.99c1.668-2.612.685-5.78-1.694-7.744z" transform="translate(-121 -160) translate(121 160) matrix(1 0 0 -1 26 79)"/>
                    <path fill="#1A4F82" d="M43.255 26.923l3.103-4.835c4.409-7.176 1.965-16.136-4.344-19.782C35.032-2.232 26.253.302 22.232 6.65L2.295 37.77C-1.972 44.417-.019 53.3 6.639 57.554c2.922 1.978 6.323 2.611 9.542 2.185 3.103 10.99 13.214 18.76 24.837 18.76 14.248 0 25.846-11.585 25.846-25.82 0-13.51-10.395-24.604-23.609-25.755zm-25.096-5.831l3.556 2.276c1.021.646 2.366.349 3.012-.66.647-1.008.35-2.366-.659-3.012l-3.556-2.276 2.134-3.323 8.21 5.25c1.021.646 2.366.348 3.012-.66.647-1.021.35-2.366-.659-3.013l-8.223-5.262.918-1.435c2.508-4.086 8.844-6.27 13.757-3.013 4.564 2.935 5.947 8.909 3.012 13.77L31.36 37.396 14.578 26.652l3.581-5.56zM8.992 53.881c-4.616-2.974-5.986-9.128-3.012-13.77l6.257-9.787L29.02 41.068l-6.258 9.787c-2.91 4.383-8.663 6.038-13.77 3.026zm11.378 4.603c2.457-1.138 4.603-2.948 6.064-5.288l14.132-22.058c5.08.052 10.369 1.888 14.028 4.875L24.378 66.228c-1.823-2.237-3.206-4.848-4.008-7.744zM41.018 74.14c-5.094 0-9.826-1.797-13.55-4.836l30.203-30.203c3.026 3.711 4.836 8.417 4.836 13.563-.013 11.844-9.646 21.476-21.489 21.476z" transform="translate(-121 -160) translate(121 160) matrix(1 0 0 -1 26 79)"/>
                </g>
                <path fill="#51677D" d="M8.402 153c.11 0 .203-.04.282-.117.078-.078.117-.172.117-.281v-5.446h1.054c.11 0 .204-.039.282-.117.078-.078.117-.172.117-.281v-1.367c0-.11-.04-.203-.117-.282-.078-.073-.172-.109-.282-.109H8.801v-.766c0-.177.06-.328.18-.453.124-.125.27-.187.437-.187h.227c.109 0 .203-.04.28-.117.079-.079.118-.172.118-.282v-1.367c0-.11-.04-.203-.117-.281-.078-.078-.172-.117-.281-.117h-.297c-.839 0-1.558.284-2.157.851-.593.568-.89 1.25-.89 2.047V145h-.742c-.11 0-.204.036-.282.11-.078.077-.117.171-.117.28v1.368c0 .11.04.203.117.281.078.078.172.117.282.117H6.3v5.446c0 .109.039.203.117.28.078.079.172.118.281.118h1.703zm10.196.148c1.166 0 2.161-.403 2.984-1.21.823-.808 1.234-1.782 1.234-2.922 0-1.141-.411-2.115-1.234-2.922-.823-.808-1.818-1.211-2.984-1.211-1.162 0-2.154.403-2.977 1.21-.823.808-1.234 1.782-1.234 2.923 0 1.14.411 2.114 1.234 2.922.823.807 1.815 1.21 2.977 1.21zm0-2.132c-.474 0-.88-.196-1.22-.586-.338-.39-.507-.862-.507-1.414 0-.552.17-1.024.508-1.414.338-.391.745-.586 1.219-.586.479 0 .888.195 1.226.586.339.39.508.862.508 1.414 0 .552-.17 1.023-.508 1.414-.338.39-.747.586-1.226.586zM29.637 153c.11 0 .203-.04.281-.117.078-.078.117-.172.117-.281v-3.665c.021-.697.2-1.2.54-1.507.322-.266.728-.399 1.218-.399.354 0 .672.107.953.32.234.183.37.28.406.29.11.036.209.02.297-.047.084-.063.125-.151.125-.266v-1.984c0-.172-.08-.29-.242-.352-.286-.073-.57-.11-.852-.11-1 0-1.815.368-2.445 1.102v-.593c0-.11-.039-.203-.117-.282-.078-.078-.172-.117-.281-.117h-2.25c-.084 0-.157.029-.219.086-.057.063-.086.136-.086.219 0 .099.044.18.133.242.036.026.07.055.101.086.146.146.22.32.22.523v6.454c0 .109.036.203.109.28.078.079.171.118.28.118h1.712zm18.039 0c.114 0 .213-.042.297-.125.078-.078.117-.174.117-.29v-4.226h.031l3.383 4.36c.12.172.263.265.43.281h2.757c.094 0 .175-.034.243-.102.067-.067.101-.148.101-.242 0-.12-.052-.213-.156-.281-.037-.026-.073-.057-.11-.094l-.07-.086-.008-.007-3.976-4.82 3.898-4.641c.084-.1.091-.198.024-.297-.058-.089-.136-.133-.235-.133h-2.695c-.167.01-.312.104-.437.281l-3.149 4.133h-.031v-4c0-.11-.04-.206-.117-.29-.084-.082-.183-.124-.297-.124h-2.64c-.095 0-.175.034-.243.101-.068.068-.102.149-.102.243 0 .114.052.208.157.28.036.027.073.058.109.095.167.166.25.367.25.601v8.969c0 .11.042.206.125.289.078.083.175.125.29.125h2.054zm15.547.414c1.588 0 2.942-.562 4.062-1.687 1.125-1.12 1.688-2.474 1.688-4.063 0-1.588-.563-2.943-1.688-4.062-1.12-1.125-2.474-1.688-4.062-1.688-1.589 0-2.943.563-4.063 1.688-1.125 1.12-1.687 2.474-1.687 4.062 0 1.589.562 2.943 1.687 4.063 1.12 1.125 2.474 1.687 4.063 1.687zm0-2.773c-.787 0-1.459-.292-2.016-.875-.552-.578-.828-1.279-.828-2.102s.276-1.526.828-2.11c.557-.577 1.23-.867 2.016-.867s1.458.29 2.015.868c.552.583.828 1.286.828 2.11 0 .822-.276 1.523-.828 2.1-.557.584-1.229.876-2.015.876zM76.035 153c.115 0 .211-.042.29-.125.083-.078.124-.174.124-.29v-3.108c0-.058.021-.107.063-.149.041-.036.088-.055.14-.055h1.688c.088 0 .15.04.187.118l1.782 3.375c.073.156.198.234.375.234h2.28c.095 0 .175-.034.243-.102.068-.067.102-.148.102-.242 0-.12-.052-.213-.157-.281-.041-.031-.08-.063-.117-.094-.057-.062-.107-.133-.148-.21l-1.774-3.368c.485-.318.867-.729 1.149-1.234.286-.521.43-1.084.43-1.688 0-.958-.34-1.778-1.016-2.46-.683-.683-1.505-1.024-2.469-1.024h-5.71c-.095 0-.175.034-.243.101-.068.068-.102.149-.102.243 0 .12.052.213.157.28.036.032.073.066.109.102.167.162.25.36.25.594v8.969c0 .115.039.21.117.289.083.083.182.125.297.125h1.953zm3.227-6.273h-2.61c-.052 0-.099-.021-.14-.063-.042-.036-.063-.083-.063-.14v-1.477c0-.057.021-.107.063-.149.041-.041.088-.062.14-.062h2.61c.192 0 .36.07.5.21.135.136.203.3.203.493v.492c0 .193-.068.357-.203.492-.14.136-.308.204-.5.204zM95.934 153c.114 0 .21-.04.289-.117.083-.084.125-.18.125-.29v-1.741c0-.11-.042-.206-.125-.29-.078-.078-.175-.117-.29-.117h-5.062c-.057 0-.107-.02-.148-.062-.042-.037-.063-.084-.063-.14v-1.173c0-.057.021-.104.063-.14.041-.042.09-.063.148-.063h4.89c.115 0 .212-.039.29-.117.083-.078.125-.174.125-.29v-1.624c0-.11-.042-.203-.125-.281-.078-.084-.175-.125-.29-.125h-4.89c-.057 0-.107-.021-.148-.063-.042-.036-.063-.083-.063-.14v-1.172c0-.058.021-.104.063-.14.041-.043.09-.063.148-.063h5.063c.114 0 .21-.04.289-.118.083-.083.125-.18.125-.289v-1.742c0-.114-.042-.21-.125-.289-.078-.078-.175-.117-.29-.117h-8.32c-.093 0-.174.034-.242.101-.068.068-.101.149-.101.243 0 .114.052.208.156.28.036.027.073.058.11.095.166.166.25.367.25.601v8.977c0 .114.04.21.124.289.078.078.175.117.29.117h7.734zm7.257 0c.11 0 .193-.02.25-.063.063-.041.11-.109.141-.203l.555-1.46h3.828l.555 1.46c.03.094.078.162.14.203.057.042.143.063.258.063h2.062c.13 0 .222-.029.274-.086.052-.062.06-.14.023-.234l-3.922-10.133c-.072-.162-.2-.242-.382-.242h-2.875c-.094 0-.175.034-.243.101-.067.063-.101.143-.101.242 0 .115.052.206.156.274l-.008.008c.042.026.081.057.118.093l.015.016.086.102c-.005 0 0 .01.016.03.026.043.047.084.062.126l.008.008c.042.104.063.208.063.312v.086c-.01.083-.032.162-.063.234l-3.383 8.743c-.036.093-.028.172.024.234.052.057.143.086.273.086h2.07zm3.79-4.04h-1.852c-.083 0-.125-.04-.125-.124 0-.02.003-.042.008-.063l.562-1.664.12-.357.101-.306c.14-.421.223-.671.248-.75h.023l1.032 3.077c.01.021.015.042.015.063 0 .083-.044.125-.133.125z" transform="translate(-121 -160) translate(121 160)"/>
            </g>
        </g>
    </g>
</svg>
